<?xml version="1.0" encoding="UTF-8"?><svg id="Layer_1" xmlns="http://www.w3.org/2000/svg" viewBox="0 0 150 150"><defs><style>.cls-1{letter-spacing:0em;}.cls-2,.cls-3{fill:#666;}.cls-3{font-family:DINOT-Medium, 'DIN OT';font-size:10.18px;}.cls-4{letter-spacing:-.03em;}</style></defs><path class="cls-2" d="M67.78,87.28h-19.85c-1.73,0-3.14-1.4-3.14-3.14V47.39c0-.8,.96-1.2,1.53-.63l23.68,23.58c.59,.59,.92,1.39,.92,2.22v11.58c0,1.73-1.4,3.14-3.14,3.14Z"/><path class="cls-2" d="M102.07,87.28h-19.97c-1.67,0-3.02-1.35-3.02-3.02v-2.98c0-.86,.36-1.69,.98-2.28l23.63-22.34c.57-.54,1.51-.14,1.51,.65v26.83c0,1.73-1.4,3.14-3.14,3.14Z"/><path class="cls-2" d="M47.93,26.86h19.85c1.73,0,3.14,1.4,3.14,3.14v25.73c0,.8-.96,1.2-1.53,.63l-23.56-23.47c-.67-.66-1.04-1.56-1.04-2.5v-.4c0-1.73,1.4-3.14,3.14-3.14Z"/><path class="cls-2" d="M102.07,26.86h-19.85c-1.73,0-3.14,1.4-3.14,3.14v36.14c0,.8,.96,1.2,1.53,.63l23.68-23.58c.59-.59,.92-1.39,.92-2.22v-10.97c0-1.73-1.4-3.14-3.14-3.14Z"/><text class="cls-3" transform="translate(44.79 100.21)"><tspan x="0" y="0">ORDEM</tspan><tspan x="0" y="10.2">D</tspan><tspan class="cls-1" x="6.78" y="10.2">O</tspan><tspan x="13.32" y="10.2">S</tspan><tspan x="0" y="20.4">PSI</tspan><tspan class="cls-1" x="15.4" y="20.4">C</tspan><tspan x="21.76" y="20.4">Ó</tspan><tspan class="cls-4" x="28.33" y="20.4">L</tspan><tspan class="cls-1" x="33.83" y="20.4">OGO</tspan><tspan x="53.49" y="20.4">S</tspan></text></svg>