<?xml version="1.0" encoding="UTF-8"?><svg id="Layer_1" xmlns="http://www.w3.org/2000/svg" viewBox="0 0 150 150"><defs><style>.cls-1{fill:#666;}</style></defs><rect class="cls-1" x="71.2" y="116.89" width="4.47" height="3.77"/><path class="cls-1" d="M77.72,34.99v5.03h-20.56v34.55h34.75v-20.52h4.91v25.41H52.25V34.99h25.47Zm19.1-8.21v8.21h8.22v5.03h-8.22v8.21h-4.91v-8.21h-8.35v-5.03h8.35v-8.21h4.91Zm-24.14,41.16v-13.9h-4.64v-3.57h.53c1.46,0,2.65-.26,3.45-.93,.79-.66,1.32-1.85,1.32-3.31h4.38v21.7h-5.04Z"/><path class="cls-1" d="M12.99,98.11c-6.47,0-10.6,4.9-10.6,11.47s4.13,11.36,10.6,11.36,10.6-4.79,10.6-11.36-4.13-11.47-10.6-11.47Zm0,19.26c-4.13,0-6.14-3.45-6.14-7.79s2.12-7.8,6.14-7.8,6.03,3.45,6.03,7.8-1.9,7.68-6.03,7.79Z"/><path class="cls-1" d="M27.39,98.56h4.58l7.36,12.25c.67,1.23,1.56,3.12,1.56,3.12h.11s-.11-2.23-.11-3.79v-11.58h4.35v21.94h-4.35l-7.59-12.14c-.67-1.11-1.56-3.01-1.56-3.01h-.11s.11,2.34,.11,3.79v11.36h-4.35v-21.94Z"/><polygon class="cls-1" points="50.15 98.56 66.33 98.56 66.33 102.23 54.61 102.23 54.61 107.13 64.88 107.13 64.88 110.81 54.61 110.81 54.61 116.71 66.44 116.71 66.44 120.5 50.15 120.5 50.15 98.56"/><path class="cls-1" d="M86.3,100.56c-1.34-1.23-3.24-2.01-5.8-2.01h-9.48v21.83h4.58v-7.91h5.36c4.58,0,7.37-2.78,7.37-6.9,0-2.01-.78-3.79-2.01-5.01Zm-6.36,8.35h-4.58v-6.46h4.69c2.12,0,3.46,1.23,3.46,3.23,0,1.89-1.23,3.23-3.57,3.23Z"/><polygon class="cls-1" points="91.44 98.56 95.9 98.56 95.9 116.71 106.16 116.71 106.16 120.5 91.44 120.5 91.44 98.56"/><path class="cls-1" d="M108.62,98.56h4.46v14.92c0,2.23,1.12,3.9,4.13,3.9,2.79,0,4.13-1.67,4.13-3.9v-14.92h4.46v14.92c0,4.67-2.9,7.46-8.48,7.46-5.8-.11-8.7-2.79-8.7-7.57v-14.81Z"/><path class="cls-1" d="M133.28,113.7c.33,2.67,1.79,3.67,4.91,3.67,2.23,0,4.24-.78,4.24-2.79,0-2.11-2.12-2.56-5.47-3.34-3.9-.89-7.59-1.89-7.59-6.46s3.57-6.57,8.37-6.57,8.15,2.45,8.48,6.79h-4.24c-.22-2.23-2.01-3.34-4.24-3.34-2.34,0-4.02,1-4.02,2.56,0,1.78,1.56,2.34,4.8,3.01,4.58,1,8.26,2.01,8.26,6.79,0,4.45-3.57,6.91-8.59,6.91-5.8,0-9.15-2.67-9.26-7.24h4.35Z"/></svg>