<?xml version="1.0" encoding="UTF-8"?><svg id="Layer_1" xmlns="http://www.w3.org/2000/svg" viewBox="0 0 150 150"><defs><style>.cls-1{fill:#666;}</style></defs><polygon class="cls-1" points="28.05 62.78 21.78 79.74 15.63 62.78 5.31 62.78 18.34 93.02 25.34 93.02 38.37 62.78 28.05 62.78"/><polygon class="cls-1" points="80.29 62.78 75.61 62.78 75.61 93.02 84.96 93.02 84.96 62.78 80.29 62.78"/><polygon class="cls-1" points="90.61 62.78 90.61 71.75 97 71.75 97 93.02 106.22 93.02 106.22 71.75 112.61 71.75 112.61 62.78 90.61 62.78"/><polygon class="cls-1" points="135.35 62.78 135.35 73.1 127.61 73.1 127.61 62.78 118.27 62.78 118.27 93.02 127.61 93.02 127.61 82.08 135.35 82.08 135.35 93.02 144.69 93.02 144.69 62.78 135.35 62.78"/><path class="cls-1" d="M61.23,78.88c0,3.93-3.2,7.25-7.13,7.25s-7.25-3.2-7.25-7.25,3.2-7.13,7.25-7.13,7.13,3.2,7.13,7.13m8.48,0c0-8.73-7.01-15.73-15.73-15.73s-15.73,7.01-15.73,15.73,7.13,15.73,15.73,15.73c8.73,0,15.73-7.01,15.73-15.73"/></svg>