<?xml version="1.0" encoding="UTF-8"?><svg id="Layer_1" xmlns="http://www.w3.org/2000/svg" viewBox="0 0 150 150"><defs><style>.cls-1{fill:#666;}</style></defs><g id="QgaPBB"><path class="cls-1" d="M83.24,80.64c1.11-1.07,2.23-2.12,3.31-3.2,1.01-1.02,2.01-2.06,2.96-3.13,.63-.71,.88-1.59,1.07-2.52,.61-3.11,1.89-5.85,4.6-7.71,4.38-3,11.34-1.47,12.87,4.73,.37,1.49,.16,2.97-.04,4.46-.43,3.2-.84,6.4-1.26,9.61-.02,.13,0,.26,0,.41,2.38-.85,4.05,1.68,3.68,3.34-.2,.88-.63,1.59-1.47,1.95-3.06,1.31-6.1,2.66-9.19,3.88-2.03,.8-4.13,.71-6.26-.12-.12,.84-.23,1.65-.34,2.46-.27,2.11-.54,4.21-.8,6.32-.21,1.65-1.56,2.77-3.15,2.59-1.63-.18-2.75-1.59-2.54-3.25,.7-5.39,1.42-10.78,2.13-16.16,.06-.43,.1-.86,.17-1.43-.66,.61-1.25,1.13-1.82,1.67-1.91,1.82-3.76,3.7-5.73,5.45-2.86,2.54-6.26,3.42-10.01,2.77-4.02-.69-6.78-4.43-6.38-8.51,0-.09,0-.18,0-.38-1,1.09-1.92,2.11-2.87,3.1-1.75,1.82-3.55,3.59-5.87,4.69-2.55,1.21-5.23,1.62-7.99,1.04-2.31-.48-4.15-1.66-5.02-4.05-.18,.02-.37,.05-.56,.07-1.35,.14-2.52-.57-3-1.81-.46-1.17-.07-2.53,.96-3.33,.39-.3,.78-.61,1.2-.86,.46-.26,.62-.64,.69-1.14,.51-3.61,1.02-7.21,1.57-10.81,.86-5.64,6.89-9.41,12.32-7.75,4.96,1.52,7.03,7.29,4.2,11.69-1.28,1.99-3.06,3.5-4.93,4.88-2.34,1.74-4.72,3.42-7.11,5.09-.38,.27-.46,.49-.3,.92,.37,.99,1.13,1.57,2.18,1.6,2.22,.06,4.04-.85,5.68-2.25,2.3-1.97,4.13-4.39,6.13-6.63,.87-.97,1.66-2,2.56-2.93,1.15-1.19,1.68-2.61,1.89-4.22,.7-5.4,6.18-9.4,11.41-8.38,.52,.1,1.02,.28,1.58,.44,.19-1.46,.38-2.9,.57-4.34,.16-1.25,.3-2.5,.49-3.75,.26-1.75,1.61-2.65,3.04-2.52,1.76,.16,2.84,1.53,2.63,3.22-.47,3.75-.97,7.5-1.47,11.24-.6,4.47-1.2,8.94-1.8,13.41,0,.06,0,.12,0,.14Zm19.32-9.14c-.05-.42-.06-.83-.15-1.23-.33-1.5-1.34-2.23-2.87-2.09-1.7,.16-3.07,1.34-3.31,3.1-.53,3.82-.99,7.65-1.44,11.48-.1,.89-.12,1.8-.08,2.69,.03,.61,.42,1.09,1,1.28,1.6,.53,3.2,.33,4.37-1.13,.58-.73,.85-1.58,.96-2.5,.26-2.03,.53-4.06,.79-6.09,.24-1.83,.48-3.67,.72-5.51Zm-31.68,12.69c-.03,1.87,.49,2.67,1.58,2.88,2.97,.56,4.5-1.4,4.78-3.56,.42-3.2,.77-6.41,1.12-9.61,.14-1.23,.28-2.47,.29-3.7,.01-1-.56-1.66-1.38-1.92-2.13-.66-4.46,.81-4.75,3.02-.31,2.36-.61,4.73-.91,7.09-.26,2.07-.52,4.14-.73,5.8Zm-22.32-6.33l.2,.12c1.85-1.49,3.73-2.94,5.53-4.48,.63-.54,1.19-1.22,1.61-1.93,.92-1.54,.21-3.09-1.47-3.35-1.89-.29-3.84,.63-4.6,2.37-.38,.88-.51,1.88-.67,2.84-.24,1.47-.42,2.95-.62,4.43Z"/></g></svg>