<?xml version="1.0" encoding="UTF-8"?><svg id="Layer_1" xmlns="http://www.w3.org/2000/svg" viewBox="0 0 150 150"><defs><style>.cls-1{fill:#666;}</style></defs><path class="cls-1" d="M103.73,26.86H46.27c-1.51,0-2.8,1.25-2.8,2.8v57.54c0,1.51,1.25,2.8,2.8,2.8h57.45c1.51,0,2.8-1.25,2.8-2.8V29.66c-.04-1.51-1.29-2.8-2.8-2.8Zm-5.51,20.67h-30.92c-.69,.13-1.21,.82-1.21,1.51v3.75c0,.34,.13,.6,.39,.86,.3,.3,.69,.52,1.08,.73,1.16,.52,2.37,1.03,3.57,1.59,1.16,.52,2.28,1.21,3.19,2.15l.17,.04h4.95c.22-.04,.3-.13,.3-.34v-.82c0-.39,.09-.73,.39-.99,.26-.26,.6-.3,.95-.3h17.1v5.9h-30.88c-.69,.13-1.21,.82-1.25,1.51v3.75c0,.34,.13,.6,.39,.86,.3,.3,.69,.52,1.08,.73,1.16,.52,2.37,1.03,3.57,1.59,1.16,.52,2.28,1.21,3.19,2.15l.17,.04h5c.22-.04,.26-.13,.3-.34v-.82c0-.39,.09-.73,.39-.99,.26-.26,.6-.3,.95-.3h17.1v9c0,1.81-1.42,3.49-3.27,3.49H55.49c-1.81,0-3.36-1.68-3.36-3.49V38.62c0-1.81,1.55-3.36,3.36-3.36h39.45c1.81,0,3.27,1.51,3.27,3.36v8.91Z"/><g><g><polygon id="polygon3760" class="cls-1" points="56.5 103.12 51.95 103.12 51.95 93.35 56.5 93.35 56.5 95.16 54.01 95.16 54.01 97.24 56.25 97.24 56.25 99.03 54.01 99.03 54.01 101.31 56.5 101.31 56.5 103.12"/><polygon id="polygon3762" class="cls-1" points="64.39 103.12 60.06 103.12 60.06 93.35 62.11 93.35 62.11 101.31 64.39 101.31 64.39 103.12"/><polygon id="polygon3764" class="cls-1" points="72.33 103.12 67.79 103.12 67.79 93.35 72.33 93.35 72.33 95.16 69.86 95.16 69.86 97.24 72.09 97.24 72.09 99.03 69.86 99.03 69.86 101.31 72.33 101.31 72.33 103.12"/><polygon id="polygon3766" class="cls-1" points="80.4 103.12 77.23 103.12 77.21 103.01 75.55 93.35 77.65 93.35 78.8 100.14 79.98 93.35 82.06 93.35 80.4 103.12"/><polygon id="polygon3768" class="cls-1" points="90.01 103.12 85.49 103.12 85.49 93.35 90.01 93.35 90.01 95.16 87.54 95.16 87.54 97.24 89.79 97.24 89.79 99.03 87.54 99.03 87.54 101.31 90.01 101.31 90.01 103.12"/><polygon id="polygon3770" class="cls-1" points="98.99 103.12 96.88 103.12 95.61 98.92 95.61 103.12 93.58 103.12 93.58 93.35 95.61 93.35 97.03 97.84 97.03 93.35 98.99 93.35 98.99 103.12"/></g><g><path id="path3772" class="cls-1" d="M54.76,115.64h-.25c-1.98,0-2.53-.49-2.53-2.3v-1.24h2.05v1.36c0,.41,.11,.43,.45,.43h.25c.34,0,.45-.02,.45-.43v-1.13c0-.41-.11-.45-.51-.62-.08-.02-.13-.06-.23-.09l-.98-.34c-.81-.32-1.53-.6-1.53-2v-1.17c0-1.83,.51-2.3,2.53-2.3h.19c2.02,0,2.53,.47,2.53,2.3v1.23h-2.05v-1.34c0-.41-.11-.41-.45-.41h-.19c-.36,0-.45,.02-.45,.41v.75c0,.57,.11,.6,.83,.87l.02,.02,.92,.32c.81,.3,1.45,.53,1.45,1.96v1.45c0,1.79-.55,2.28-2.51,2.28Z"/><path id="path3774" class="cls-1" d="M62.04,115.6h-2.05v-9.75h2.79c1.9,0,2.45,.47,2.45,2.21v2.28c0,1.73-.51,2.21-2.45,2.21h-.72l-.02,3.05h0Zm0-4.83h.7c.3,0,.4-.02,.4-.34v-2.45c0-.32-.11-.36-.4-.36h-.7v3.15Z"/><path id="path3776" class="cls-1" d="M70.58,115.64h-.34c-1.98,0-2.53-.49-2.53-2.3v-5.24c0-1.81,.55-2.3,2.53-2.3h.34c1.98,0,2.53,.49,2.53,2.3v5.24c-.02,1.81-.57,2.3-2.53,2.3Zm-.32-8.09c-.36,0-.47,.04-.47,.45v5.43c0,.41,.11,.45,.47,.45h.3c.36,0,.47-.04,.47-.45v-5.43c0-.41-.13-.45-.47-.45h-.3Z"/><path id="path3778" class="cls-1" d="M81.74,115.6h-2.05v-3.17c0-.53-.28-.53-.38-.53h-.75v3.69h-2.05v-9.73h2.83c1.92,0,2.43,.45,2.43,2.21v1.32c0,.9-.19,1.38-.66,1.58,.47,.25,.66,.75,.66,1.68l-.02,2.94h0Zm-3.2-5.43h.77c.26,0,.36,0,.36-.36v-1.87c0-.32-.09-.32-.38-.32h-.75v2.55h0Z"/><polygon id="polygon3780" class="cls-1" points="89.07 115.6 87 115.6 87 107.64 85.34 107.64 85.34 105.85 90.75 105.85 90.75 107.64 89.07 107.64 89.07 115.6"/><path id="path3782" class="cls-1" d="M96.63,115.64h-.25c-1.98,0-2.53-.49-2.53-2.3v-1.24h2.05v1.36c0,.41,.11,.43,.45,.43h.25c.34,0,.45-.02,.45-.43v-1.13c0-.41-.11-.45-.51-.62-.08-.02-.13-.06-.23-.09l-.98-.34c-.81-.32-1.53-.6-1.53-2v-1.17c0-1.83,.51-2.3,2.53-2.3h.19c2.02,0,2.53,.47,2.53,2.3v1.23h-2.05v-1.34c0-.41-.11-.41-.45-.41h-.19c-.36,0-.45,.02-.45,.41v.75c0,.57,.11,.6,.83,.87l.02,.02,.92,.32c.81,.3,1.45,.53,1.45,1.96v1.45c0,1.79-.53,2.28-2.51,2.28Z"/></g></g><path class="cls-1" d="M102.95,28.86c1,0,1.81,.81,1.81,1.81V116.34c0,1.28-1.04,2.32-2.32,2.32H47.56c-1.28,0-2.32-1.04-2.32-2.32V30.67c0-1,.81-1.81,1.81-1.81h55.9m0-2H47.05c-2.1,0-3.81,1.71-3.81,3.81V116.34c0,2.38,1.93,4.32,4.32,4.32h54.88c2.38,0,4.32-1.93,4.32-4.32V30.67c0-2.1-1.71-3.81-3.81-3.81h0Z"/></svg>