<?xml version="1.0" encoding="UTF-8"?><svg id="Layer_1" xmlns="http://www.w3.org/2000/svg" viewBox="0 0 150 150"><defs><style>.cls-1{fill:#666;}</style></defs><g id="FhSQd7"><g><path class="cls-1" d="M2.11,62.77H47.07v30.29h-9.32v-21.29h-8.43v21.28h-9.36v-21.29H11.47v21.27H2.11v-30.26Z"/><path class="cls-1" d="M110.32,65.71v-2.93h9.29v30.27h-9.25c-.04-.91-.08-1.78-.12-2.64-.17,0-.33-.05-.37,0-4.52,5.15-13.94,4.62-18.7-1.8-4.36-5.88-4.37-15.47,0-21.34,4.92-6.61,14.34-6.92,18.63-1.73,.06,.07,.2,.06,.54,.16Zm-.04,12.27c.02-4.1-2.63-6.99-6.4-7.01-3.79-.02-6.47,2.84-6.48,6.92-.02,4.06,2.67,7.02,6.4,7.04,3.76,.02,6.46-2.88,6.48-6.95Z"/><path class="cls-1" d="M83.38,93.09h-9.29v-2.78c-.33,.11-.53,.12-.61,.22-4.3,4.84-13.32,4.54-18.17-1.39-4.89-5.98-4.9-16.25-.09-22.29,4.02-5.05,12.67-7.3,18.72-.97l.14-3.06h9.3v30.28Zm-9.37-15.08c.03-4.13-2.57-7.01-6.35-7.04-3.8-.03-6.49,2.81-6.53,6.88-.04,4.05,2.65,7.03,6.38,7.07,3.78,.04,6.47-2.83,6.5-6.91Z"/><path class="cls-1" d="M129.35,62.71v-6.61h9.4v6.52h9.12v8.9h-8.96v12.78h8.98v8.73h-18.51v-21.4h-5.09v-8.92h5.06Z"/></g></g></svg>